<svg width="585" height="389" viewBox="0 0 585 389" fill="none" xmlns="http://www.w3.org/2000/svg">
<rect width="377" height="230" rx="10" transform="matrix(-1 0 0 1 585 70)" fill="url(#paint0_linear_1513_3177)"/>
<path d="M200.133 368.459V359.086H172.497V368.459C172.499 371.521 171.467 374.493 169.568 376.894L168.352 378.431H204.278L203.071 376.894C201.165 374.497 200.129 371.523 200.133 368.459Z" fill="white" stroke="#263238" stroke-linecap="round" stroke-linejoin="round"/>
<g style="mix-blend-mode:multiply">
<path d="M170.812 375.038H201.841C200.722 373.026 200.137 370.761 200.139 368.459V359.086H172.504V368.459C172.505 370.76 171.923 373.023 170.812 375.038Z" fill="#FF7C39"/>
</g>
<path d="M200.136 360.499H172.5V364.459H200.136V360.499Z" fill="#263238" stroke="#263238" stroke-width="1.09543" stroke-linecap="round" stroke-linejoin="round"/>
<path d="M232.267 278.747H140.369C135.078 278.747 130.789 283.036 130.789 288.327V352.466C130.789 357.757 135.078 362.046 140.369 362.046H232.267C237.558 362.046 241.847 357.757 241.847 352.466V288.327C241.847 283.036 237.558 278.747 232.267 278.747Z" fill="#263238" stroke="#263238" stroke-width="1.09543" stroke-linecap="round" stroke-linejoin="round"/>
<path d="M130.789 349.094H241.847V352.507C241.847 353.765 241.599 355.011 241.118 356.173C240.636 357.335 239.931 358.391 239.041 359.281C238.152 360.17 237.096 360.876 235.933 361.357C234.771 361.839 233.525 362.087 232.267 362.087H140.369C139.111 362.087 137.865 361.839 136.703 361.357C135.54 360.876 134.484 360.17 133.595 359.281C132.705 358.391 132 357.335 131.518 356.173C131.037 355.011 130.789 353.765 130.789 352.507V349.145V349.094Z" fill="white" stroke="#263238" stroke-linecap="round" stroke-linejoin="round"/>
<path d="M236.265 283.924H136.375V342.773H236.265V283.924Z" fill="url(#paint1_linear_1513_3177)" stroke="#263238" stroke-width="1.09543" stroke-linecap="round" stroke-linejoin="round"/>
<path d="M188.367 355.6C188.367 355.193 188.246 354.794 188.019 354.455C187.793 354.116 187.471 353.851 187.094 353.695C186.717 353.539 186.302 353.498 185.902 353.578C185.502 353.657 185.135 353.854 184.846 354.142C184.558 354.431 184.361 354.798 184.282 355.198C184.202 355.598 184.243 356.013 184.399 356.39C184.555 356.767 184.82 357.089 185.159 357.315C185.498 357.542 185.897 357.663 186.305 357.663C186.852 357.663 187.376 357.446 187.763 357.059C188.15 356.672 188.367 356.147 188.367 355.6Z" fill="#263238" stroke="#263238" stroke-width="1.09543" stroke-linecap="round" stroke-linejoin="round"/>
<path d="M204.278 378.432H168.352V380.102H204.278V378.432Z" fill="white" stroke="#263238" stroke-linecap="round" stroke-linejoin="round"/>
<path d="M173.657 282.995C173.657 282.995 168.8 281.644 165.284 284.345C161.768 287.047 161.51 294.059 163.665 297.576C165.82 301.092 168.821 303.237 165.016 305.67C161.211 308.104 158.54 309.723 159.076 314.033C159.613 318.343 163.665 324.025 170.141 324.293C176.617 324.561 184.454 318.9 184.454 312.693C184.454 306.485 179.865 302.432 181.484 298.926C183.103 295.42 187.96 290.821 184.186 285.964C180.411 281.108 173.657 282.995 173.657 282.995Z" fill="#263238" stroke="#263238" stroke-linecap="round" stroke-linejoin="round"/>
<path d="M221.212 341.876L210.24 318.54H160.702L151.422 341.876H221.212Z" fill="#323232" stroke="#263238" stroke-linecap="round" stroke-linejoin="round"/>
<path d="M202.713 341.875L210.241 318.539L185.379 305L160.703 318.539L166.56 341.875H202.713Z" fill="white" stroke="#263238" stroke-linecap="round" stroke-linejoin="round"/>
<path d="M181.12 307.332L174.056 311.261C172.757 314.777 171.592 320.17 175.087 323.264C177.253 325.223 185.606 318.954 185.606 318.954C185.606 318.954 191.545 325.429 196.402 323.264C199.846 321.738 198.279 315.623 196.206 310.89L188.503 306.703L181.12 307.332Z" fill="#8FBAAD" stroke="#263238" stroke-linecap="round" stroke-linejoin="round"/>
<path d="M178.578 298.68V308.992L181.208 316.664C181.471 317.441 181.973 318.115 182.641 318.59C183.31 319.066 184.112 319.318 184.932 319.311C185.752 319.304 186.55 319.038 187.21 318.552C187.871 318.066 188.361 317.383 188.611 316.602L191.138 308.837V298.082L178.578 298.68Z" fill="white" stroke="#263238" stroke-linecap="round" stroke-linejoin="round"/>
<path d="M175.862 287.038C175.862 287.038 173.254 282.408 171.81 284.976C170.366 287.543 172.387 293.071 173.254 294.514C174.12 295.958 175.574 293.648 175.574 293.648" fill="white"/>
<path d="M175.862 287.038C175.862 287.038 173.254 282.408 171.81 284.976C170.366 287.543 172.387 293.071 173.254 294.514C174.12 295.958 175.574 293.648 175.574 293.648" stroke="#263238" stroke-linecap="round" stroke-linejoin="round"/>
<path d="M194.484 287.038C194.484 287.038 197.093 282.408 198.537 284.976C199.981 287.543 197.959 293.071 197.093 294.514C196.227 295.958 194.773 293.648 194.773 293.648" fill="white"/>
<path d="M194.484 287.038C194.484 287.038 197.093 282.408 198.537 284.976C199.981 287.543 197.959 293.071 197.093 294.514C196.227 295.958 194.773 293.648 194.773 293.648" stroke="#263238" stroke-linecap="round" stroke-linejoin="round"/>
<path d="M195.793 286.171C195.793 294.307 191.008 305.526 185.1 305.526C179.191 305.526 174.406 294.307 174.406 286.171C174.406 278.035 179.201 271.425 185.1 271.425C190.998 271.425 195.793 278.024 195.793 286.171Z" fill="white" stroke="#263238" stroke-linecap="round" stroke-linejoin="round"/>
<path d="M180.97 279.757C180.97 279.757 183.136 274.901 186.642 279.757C190.148 284.614 188.529 288.131 191.499 289.203C192.26 289.54 193.118 289.589 193.913 289.34C194.708 289.092 195.386 288.563 195.819 287.852C195.819 287.852 204.193 282.191 195.819 273.014C194.185 271.238 192.173 269.853 189.931 268.961C187.689 268.068 185.275 267.691 182.868 267.858C178.547 268.136 178.011 273.529 178.011 273.529C178.011 273.529 174.763 272.725 173.422 276.499C172.082 280.273 174.763 290.801 174.763 288.11C174.763 285.419 178.279 277.056 180.97 279.757Z" fill="#263238" stroke="#263238" stroke-linecap="round" stroke-linejoin="round"/>
<path d="M330.289 237.324V227.94H302.653V237.324C302.655 240.387 301.619 243.361 299.714 245.759L298.508 247.327H334.434L333.217 245.8C331.311 243.387 330.279 240.399 330.289 237.324Z" fill="#8FBAAD" stroke="#263238" stroke-linecap="round" stroke-linejoin="round"/>
<g style="mix-blend-mode:multiply">
<path d="M300.953 243.893H331.981C330.872 241.881 330.29 239.621 330.29 237.324V227.94H302.655V237.324C302.656 239.623 302.07 241.884 300.953 243.893Z" fill="#FF7C39"/>
</g>
<path d="M330.292 229.353H302.656V233.312H330.292V229.353Z" fill="#263238" stroke="#263238" stroke-width="1.09543" stroke-linecap="round" stroke-linejoin="round"/>
<path d="M362.424 147.601H270.525C265.234 147.601 260.945 151.89 260.945 157.18V221.32C260.945 226.61 265.234 230.899 270.525 230.899H362.424C367.714 230.899 372.003 226.61 372.003 221.32V157.18C372.003 151.89 367.714 147.601 362.424 147.601Z" fill="#263238" stroke="#263238" stroke-width="1.09543" stroke-linecap="round" stroke-linejoin="round"/>
<path d="M260.945 217.948H372.003V221.31C372.003 222.568 371.756 223.814 371.274 224.976C370.793 226.138 370.087 227.194 369.198 228.084C368.308 228.973 367.252 229.679 366.09 230.16C364.927 230.642 363.682 230.89 362.424 230.89H270.525C269.267 230.89 268.021 230.642 266.859 230.16C265.697 229.679 264.641 228.973 263.751 228.084C262.862 227.194 262.156 226.138 261.675 224.976C261.193 223.814 260.945 222.568 260.945 221.31V217.948Z" fill="#F9F4F4" stroke="#263238" stroke-linecap="round" stroke-linejoin="round"/>
<path d="M366.414 152.787H266.523V211.637H366.414V152.787Z" fill="url(#paint2_linear_1513_3177)" stroke="#263238" stroke-width="1.09543" stroke-linecap="round" stroke-linejoin="round"/>
<path d="M318.515 224.424C318.515 224.016 318.394 223.617 318.168 223.278C317.941 222.939 317.619 222.674 317.242 222.518C316.865 222.362 316.451 222.321 316.051 222.401C315.651 222.481 315.283 222.677 314.995 222.965C314.706 223.254 314.51 223.621 314.43 224.021C314.351 224.421 314.392 224.836 314.548 225.213C314.704 225.59 314.968 225.912 315.307 226.138C315.646 226.365 316.045 226.486 316.453 226.486C317 226.486 317.525 226.269 317.911 225.882C318.298 225.495 318.515 224.971 318.515 224.424Z" fill="#263238" stroke="#263238" stroke-width="1.09543" stroke-linecap="round" stroke-linejoin="round"/>
<path d="M334.434 247.284H298.508V248.955H334.434V247.284Z" fill="#F9F4F4" stroke="#263238" stroke-linecap="round" stroke-linejoin="round"/>
<path d="M351.179 211.214L340.393 188.28H290.855L281.75 211.214H351.179Z" fill="#323232" stroke="#263238" stroke-linecap="round" stroke-linejoin="round"/>
<path d="M340.389 211.214V188.281L321.209 177.278L315.528 174.741L309.134 177.278L290.852 188.281V211.214H340.389Z" fill="#8FBAAD" stroke="#263238" stroke-linecap="round" stroke-linejoin="round"/>
<path d="M311.055 191.642L314.437 196.963L312.746 210.977H318.789L315.891 196.963L319.758 191.405L314.684 185.6L311.055 191.642Z" fill="#F87C00" stroke="#263238" stroke-linecap="round" stroke-linejoin="round"/>
<path d="M315.152 190.189L309.851 194.303L305.984 179.557L309.129 177.278H321.205L323.865 179.083L321.689 194.54L315.152 190.189Z" fill="#8FBAAD" stroke="#263238" stroke-linecap="round" stroke-linejoin="round"/>
<path d="M308.719 168.42V178.742L315.153 190.189L321.289 178.598V167.822L308.719 168.42Z" fill="#8FBAAD" stroke="#263238" stroke-linecap="round" stroke-linejoin="round"/>
<path d="M306.008 156.778C306.008 156.778 303.41 152.148 301.966 154.716C300.523 157.284 302.544 162.8 303.41 164.254C304.276 165.708 305.72 163.388 305.72 163.388" fill="#8FBAAD"/>
<path d="M306.008 156.778C306.008 156.778 303.41 152.148 301.966 154.716C300.523 157.284 302.544 162.8 303.41 164.254C304.276 165.708 305.72 163.388 305.72 163.388" stroke="#263238" stroke-linecap="round" stroke-linejoin="round"/>
<path d="M324.641 156.778C324.641 156.778 327.239 152.148 328.683 154.716C330.126 157.284 328.105 162.8 327.239 164.254C326.373 165.708 324.929 163.388 324.929 163.388" fill="#8FBAAD"/>
<path d="M324.641 156.778C324.641 156.778 327.239 152.148 328.683 154.716C330.126 157.284 328.105 162.8 327.239 164.254C326.373 165.708 324.929 163.388 324.929 163.388" stroke="#263238" stroke-linecap="round" stroke-linejoin="round"/>
<path d="M325.952 155.912C325.952 164.048 321.168 175.277 315.259 175.277C309.35 175.277 304.617 164.048 304.617 155.912C304.617 147.776 309.402 141.166 315.311 141.166C321.219 141.166 325.952 147.766 325.952 155.912Z" fill="#F9F4F4" stroke="#263238" stroke-linecap="round" stroke-linejoin="round"/>
<path d="M302.369 200.098L309.979 211.215H320.755L328.705 202.996L323.632 196.716L329.911 196.232L329.19 182.218L323.869 179.083L314.928 210.977L305.988 179.557L301.636 182.218L299.945 194.788L305.266 195.747L302.369 200.098Z" fill="#F9F4F4" stroke="#263238" stroke-linecap="round" stroke-linejoin="round"/>
<path d="M304.541 158.057C304.541 158.057 306.934 158.366 306.47 157.572C306.006 156.778 306.47 153.953 306.47 153.953C307.021 153.512 307.439 152.926 307.676 152.262C308.161 151.055 306.954 149.354 306.954 147.91C306.954 146.466 314.441 149.354 315.647 149.354C316.854 149.354 323.629 147.663 323.629 147.663C323.629 147.663 322.412 152.014 323.144 152.499C323.876 152.984 324.35 155.159 324.35 155.159C324.35 155.159 323.629 159.026 323.866 159.748C324.103 160.47 325.557 160.955 325.804 160.233C326.052 159.511 326.041 153.221 326.041 153.221C326.041 153.221 327.733 153.468 327.733 150.127C327.733 146.786 325.804 139.248 322.412 137.805C319.019 136.361 311.306 136.351 308.161 138.042C305.016 139.733 302.84 147.467 303.572 150.127C304.102 152.741 304.426 155.392 304.541 158.057Z" fill="#263238" stroke="#263238" stroke-linecap="round" stroke-linejoin="round"/>
<path d="M200.133 109.355V99.9717H172.497V109.355C172.497 112.413 171.465 115.382 169.568 117.78L168.352 119.317H204.278L203.071 117.78C201.167 115.385 200.131 112.415 200.133 109.355Z" fill="white" stroke="#263238" stroke-linecap="round" stroke-linejoin="round"/>
<g style="mix-blend-mode:multiply">
<path d="M170.812 115.924H201.841C200.723 113.915 200.138 111.654 200.139 109.355V99.9717H172.504V109.355C172.504 111.653 171.922 113.912 170.812 115.924Z" fill="#FF7C39"/>
</g>
<path d="M200.136 101.385H172.5V105.344H200.136V101.385Z" fill="#263238" stroke="#263238" stroke-width="1.09543" stroke-linecap="round" stroke-linejoin="round"/>
<path d="M232.267 19.6328H140.369C135.078 19.6328 130.789 23.9218 130.789 29.2125V93.3518C130.789 98.6425 135.078 102.931 140.369 102.931H232.267C237.558 102.931 241.847 98.6425 241.847 93.3518V29.2125C241.847 23.9218 237.558 19.6328 232.267 19.6328Z" fill="#263238" stroke="#263238" stroke-width="1.09543" stroke-linecap="round" stroke-linejoin="round"/>
<path d="M130.789 89.9795H241.847V93.3411C241.847 95.8818 240.838 98.3184 239.041 100.115C237.245 101.912 234.808 102.921 232.267 102.921H140.369C137.828 102.921 135.391 101.912 133.595 100.115C131.798 98.3184 130.789 95.8818 130.789 93.3411V89.9795Z" fill="white" stroke="#263238" stroke-linecap="round" stroke-linejoin="round"/>
<path d="M236.265 24.8086H136.375V83.658H236.265V24.8086Z" fill="url(#paint3_linear_1513_3177)" stroke="#263238" stroke-width="1.09543" stroke-linecap="round" stroke-linejoin="round"/>
<path d="M186.318 98.5074C187.451 98.5074 188.37 97.5887 188.37 96.4554C188.37 95.3221 187.451 94.4033 186.318 94.4033C185.184 94.4033 184.266 95.3221 184.266 96.4554C184.266 97.5887 185.184 98.5074 186.318 98.5074Z" fill="#263238" stroke="#263238" stroke-width="1.09543" stroke-linecap="round" stroke-linejoin="round"/>
<path d="M204.278 119.316H168.352V120.987H204.278V119.316Z" fill="white" stroke="#263238" stroke-linecap="round" stroke-linejoin="round"/>
<path d="M221.212 83.401L210.24 60.0654H160.702L151.422 83.401H221.212Z" fill="white" stroke="#263238" stroke-linecap="round" stroke-linejoin="round"/>
<path d="M168.793 30.8718C168.793 30.8718 167.009 39.1935 168.793 42.586C170.577 45.9786 173.093 50.0415 171.732 52.9803C170.371 55.9192 169.02 56.5895 168.566 62.261C168.112 67.9324 177.156 79.2032 187.55 78.0689C197.944 76.9346 204.049 68.3552 202.234 61.3535C200.419 54.3518 197.491 53.4444 198.388 48.9794C199.285 44.5144 201.553 41.5239 200.45 35.4297C199.347 29.3354 193.902 19.3845 187.354 17.1262C180.806 14.8679 176.681 18.0337 174.248 22.2821C171.814 26.5306 169.226 29.1085 168.793 30.8718Z" fill="#263238" stroke="#263238" stroke-linecap="round" stroke-linejoin="round"/>
<path d="M202.713 83.4004L210.241 60.0648L185.379 46.5254L160.703 60.0648L166.56 83.4004H202.713Z" fill="white" stroke="#263238" stroke-linecap="round" stroke-linejoin="round"/>
<path d="M175.687 51.8463L173.109 59.7554L178.987 61.3331L173.79 65.1794L184.638 75.7903L194.805 66.3034L189.835 61.56L196.837 59.7554L195.001 51.7741L185.38 46.5254L175.687 51.8463Z" fill="#8FBAAD" stroke="#263238" stroke-linecap="round" stroke-linejoin="round"/>
<path d="M178.578 40.2045V50.5266L185.002 69.2426L191.138 50.372V39.6064L178.578 40.2045Z" fill="white" stroke="#263238" stroke-linecap="round" stroke-linejoin="round"/>
<path d="M175.862 28.5626C175.862 28.5626 173.254 23.9326 171.81 26.5002C170.366 29.0678 172.387 34.5847 173.254 36.0386C174.12 37.4926 175.574 35.1621 175.574 35.1621" fill="white"/>
<path d="M175.862 28.5626C175.862 28.5626 173.254 23.9326 171.81 26.5002C170.366 29.0678 172.387 34.5847 173.254 36.0386C174.12 37.4926 175.574 35.1621 175.574 35.1621" stroke="#263238" stroke-linecap="round" stroke-linejoin="round"/>
<path d="M194.484 28.5626C194.484 28.5626 197.093 23.9326 198.537 26.5002C199.981 29.0678 197.959 34.5847 197.093 36.0386C196.227 37.4926 194.773 35.1621 194.773 35.1621" fill="white"/>
<path d="M194.484 28.5626C194.484 28.5626 197.093 23.9326 198.537 26.5002C199.981 29.0678 197.959 34.5847 197.093 36.0386C196.227 37.4926 194.773 35.1621 194.773 35.1621" stroke="#263238" stroke-linecap="round" stroke-linejoin="round"/>
<path d="M195.793 27.6863C195.793 35.8223 191.008 47.0518 185.1 47.0518C179.191 47.0518 174.406 35.8326 174.406 27.6863C174.406 19.54 179.201 12.9404 185.1 12.9404C190.998 12.9404 195.793 19.5503 195.793 27.6863Z" fill="white" stroke="#263238" stroke-linecap="round" stroke-linejoin="round"/>
<path d="M183.042 17.0542C183.042 14.6619 182.32 11.4446 179 12.5583C175.092 13.8885 172.514 22.2411 170.627 25.6439C169.659 27.2407 169.034 29.021 168.791 30.872C167.863 36.6466 172.658 41.4519 172.658 41.4519C172.658 41.4519 171.524 35.3577 172.204 31.2845C172.586 29.0159 173.73 28.191 175.731 27.3763C180.309 25.6233 183.042 22.2411 183.042 17.0542Z" fill="#263238" stroke="#263238" stroke-linecap="round" stroke-linejoin="round"/>
<path d="M203.785 28.4079C202.326 25.952 200.512 23.7247 198.402 21.798C195.917 19.3129 194.566 13.2186 188.916 11.1769C183.265 9.13514 180.78 11.8575 181.006 15.9306C181.041 16.582 181.124 17.2299 181.254 17.8692C181.249 17.9 181.249 17.9313 181.254 17.962C181.254 17.962 181.254 18.0652 181.357 18.2611C181.525 19.3504 182.047 20.3541 182.842 21.1174L182.986 21.2206C184.144 22.89 185.456 24.4471 186.905 25.8712C191.648 30.6146 197.526 34.9043 197.753 39.8746C197.928 43.9374 196.474 47.0929 195.69 51.2176H195.494C195.047 53.4242 194.125 55.5072 192.793 57.3222C190.73 59.8073 190.524 61.6119 195.278 61.8387C201.63 62.1378 204.796 53.713 205.672 48.5984C206.542 43.8666 206.577 39.0191 205.775 34.2753C205.427 32.2263 204.756 30.2457 203.785 28.4079Z" fill="#263238" stroke="#263238" stroke-linecap="round" stroke-linejoin="round"/>
<path d="M69.9919 237.325V227.941H42.3563V237.325C42.3534 240.387 41.318 243.359 39.4174 245.76L38.2109 247.328H74.1269L72.9204 245.801C71.0141 243.388 69.9817 240.4 69.9919 237.325Z" fill="#8FBAAD" stroke="#263238" stroke-linecap="round" stroke-linejoin="round"/>
<g style="mix-blend-mode:multiply">
<path d="M40.6328 243.894H71.661C70.5516 241.882 69.9698 239.622 69.9699 237.325V227.941H42.3343V237.325C42.3307 239.623 41.7454 241.883 40.6328 243.894Z" fill="#FF7C39"/>
</g>
<path d="M69.995 229.354H42.3594V233.314H69.995V229.354Z" fill="#263238" stroke="#263238" stroke-width="1.09543" stroke-linecap="round" stroke-linejoin="round"/>
<path d="M102.127 147.602H10.2281C4.9374 147.602 0.648438 151.891 0.648438 157.181V221.321C0.648438 226.611 4.9374 230.9 10.2281 230.9H102.127C107.418 230.9 111.706 226.611 111.706 221.321V157.181C111.706 151.891 107.418 147.602 102.127 147.602Z" fill="#263238" stroke="#263238" stroke-width="1.09543" stroke-linecap="round" stroke-linejoin="round"/>
<path d="M0.648438 217.949H111.706V221.311C111.706 222.569 111.459 223.815 110.977 224.977C110.496 226.139 109.79 227.195 108.901 228.085C108.011 228.974 106.955 229.68 105.793 230.161C104.631 230.643 103.385 230.891 102.127 230.891H10.2281C8.97008 230.891 7.72438 230.643 6.56212 230.161C5.39986 229.68 4.34381 228.974 3.45425 228.085C2.5647 227.195 1.85907 226.139 1.37765 224.977C0.896225 223.815 0.648438 222.569 0.648438 221.311V217.949Z" fill="#F9F4F4" stroke="#263238" stroke-linecap="round" stroke-linejoin="round"/>
<path d="M106.117 152.788H6.22656V211.638H106.117V152.788Z" fill="url(#paint4_linear_1513_3177)" stroke="#263238" stroke-width="1.09543" stroke-linecap="round" stroke-linejoin="round"/>
<path d="M58.2185 224.426C58.2185 224.018 58.0975 223.619 57.8709 223.28C57.6443 222.941 57.3222 222.676 56.9453 222.52C56.5685 222.364 56.1538 222.323 55.7538 222.403C55.3537 222.482 54.9862 222.679 54.6978 222.967C54.4094 223.256 54.213 223.623 54.1334 224.023C54.0538 224.423 54.0946 224.838 54.2507 225.215C54.4068 225.592 54.6712 225.914 55.0103 226.14C55.3495 226.367 55.7482 226.488 56.1561 226.488C56.7031 226.488 57.2277 226.271 57.6144 225.884C58.0012 225.497 58.2185 224.973 58.2185 224.426Z" fill="#263238" stroke="#263238" stroke-width="1.09543" stroke-linecap="round" stroke-linejoin="round"/>
<path d="M74.1372 247.285H38.2109V248.956H74.1372V247.285Z" fill="#F9F4F4" stroke="#263238" stroke-linecap="round" stroke-linejoin="round"/>
<path d="M91.0612 211.38L80.0894 188.034H30.5516L21.2812 211.38H91.0612Z" fill="#323232" stroke="#263238" stroke-linecap="round" stroke-linejoin="round"/>
<path d="M80.0925 211.38V188.035L64.0474 177.042L55.2308 174.495L46.4142 177.042L30.5547 188.035V211.38H80.0925Z" fill="#F8F8F8" stroke="#263238" stroke-linecap="round" stroke-linejoin="round"/>
<path d="M49.9135 172.453C49.9135 172.453 46.3868 173.484 45.6753 174.216C44.9638 174.949 44.4379 178.63 43.7367 180.569C43.0355 182.507 40.736 185.858 41.4475 186.034C42.159 186.209 48.1501 183.208 48.1501 183.208L55.0281 191.004L61.5555 182.858C61.5555 182.858 66.7114 186.745 67.0207 186.209C67.3301 185.673 64.7315 179.331 64.5562 176.681C64.3809 174.031 60.4933 173.154 58.2041 172.979C55.9149 172.804 49.9135 172.453 49.9135 172.453Z" fill="#F9F4F4" stroke="#263238" stroke-linecap="round" stroke-linejoin="round"/>
<path d="M48.4219 168.185V178.496L54.8564 190.345L60.992 178.352V167.576L48.4219 168.185Z" fill="#8FBAAD" stroke="#263238" stroke-linecap="round" stroke-linejoin="round"/>
<path d="M45.7116 156.583C45.7116 156.583 43.113 151.963 41.6693 154.521C40.2257 157.078 42.2468 162.615 43.113 164.059C43.9792 165.503 45.4228 163.193 45.4228 163.193" fill="#8FBAAD"/>
<path d="M45.7116 156.583C45.7116 156.583 43.113 151.963 41.6693 154.521C40.2257 157.078 42.2468 162.615 43.113 164.059C43.9792 165.503 45.4228 163.193 45.4228 163.193" stroke="#263238" stroke-linecap="round" stroke-linejoin="round"/>
<path d="M64.3516 156.583C64.3516 156.583 66.9501 151.963 68.3938 154.521C69.8374 157.078 67.8163 162.615 66.9501 164.059C66.0839 165.503 64.6403 163.193 64.6403 163.193" fill="#8FBAAD"/>
<path d="M64.3516 156.583C64.3516 156.583 66.9501 151.963 68.3938 154.521C69.8374 157.078 67.8163 162.615 66.9501 164.059C66.0839 165.503 64.6403 163.193 64.6403 163.193" stroke="#263238" stroke-linecap="round" stroke-linejoin="round"/>
<path d="M65.6523 155.665C65.6523 163.801 60.8676 175.031 54.959 175.031C49.0503 175.031 44.2656 163.801 44.2656 155.665C44.2656 147.529 49.0503 140.93 54.959 140.93C60.8676 140.93 65.6523 147.529 65.6523 155.665Z" fill="#F9F4F4" stroke="#263238" stroke-linecap="round" stroke-linejoin="round"/>
<path d="M63.3893 151.583C63.3893 151.583 62.6366 153.645 63.5337 154.573C64.4308 155.501 64.2864 156.811 64.1318 158.605C63.9771 160.399 64.4308 161.451 65.0289 160.853C65.627 160.255 66.2251 151.882 66.2251 151.284C66.2251 150.686 63.3893 151.583 63.3893 151.583Z" fill="#263238" stroke="#263238" stroke-linecap="round" stroke-linejoin="round"/>
<path d="M44.3978 154.418L44.6969 159.058C44.8146 159.1 44.9395 159.118 45.0641 159.11C45.1887 159.102 45.3105 159.07 45.4222 159.014C45.5339 158.958 45.6332 158.88 45.7141 158.785C45.795 158.69 45.8558 158.58 45.8931 158.46C46.1921 157.563 45.4393 154.717 46.1921 153.222C46.9449 151.727 49.7806 150.984 49.925 149.932C50.0693 148.881 48.4298 146.942 48.4298 146.2C48.4298 145.457 48.8835 144.704 52.6163 148.262C56.3492 151.82 63.2375 152.593 66.826 151.696C70.4145 150.799 66.0836 145.416 65.1864 144.22C64.2893 143.024 67.5788 143.921 65.7845 140.93C63.9903 137.94 57.7001 135.991 51.4202 138.239C45.1403 140.487 41.5518 143.622 42.4489 146.767C43.346 149.912 44.3978 154.418 44.3978 154.418Z" fill="#263238" stroke="#263238" stroke-linecap="round" stroke-linejoin="round"/>
<path d="M186.75 230.684V263.073" stroke="#F9F4F4" stroke-width="2" stroke-miterlimit="10"/>
<path d="M181.5 261.537L186.749 270.611L191.987 261.537H181.5Z" fill="#F9F4F4"/>
<path d="M186.75 161.337V128.947" stroke="#F9F4F4" stroke-width="2" stroke-miterlimit="10"/>
<path d="M191.987 130.485L186.749 121.41L181.5 130.485H191.987Z" fill="#F9F4F4"/>
<path d="M152.085 196.016H119.695" stroke="#F9F4F4" stroke-width="2" stroke-miterlimit="10"/>
<path d="M121.233 190.767L112.148 196.015L121.233 201.254V190.767Z" fill="#F9F4F4"/>
<path d="M130.389 114.811L106.703 138.497" stroke="#F9F4F4" stroke-width="2" stroke-miterlimit="10"/>
<path d="M125.594 112.181L135.72 109.469L133.008 119.605L125.594 112.181Z" fill="#F9F4F4"/>
<path d="M104.071 133.701L101.359 143.838L111.496 141.126L104.071 133.701Z" fill="#F9F4F4"/>
<path d="M244.742 114.811L268.428 138.497" stroke="#F9F4F4" stroke-width="2" stroke-miterlimit="10"/>
<path d="M242.118 119.605L239.406 109.469L249.532 112.191L242.118 119.605Z" fill="#F9F4F4"/>
<path d="M263.641 141.126L273.767 143.838L271.055 133.701L263.641 141.126Z" fill="#F9F4F4"/>
<path d="M130.389 272.684L106.703 248.998" stroke="#F9F4F4" stroke-width="2" stroke-miterlimit="10"/>
<path d="M133.008 267.899L135.73 278.026L125.594 275.314L133.008 267.899Z" fill="#F9F4F4"/>
<path d="M111.496 246.379L101.359 243.667L104.071 253.793L111.496 246.379Z" fill="#F9F4F4"/>
<path d="M244.742 272.684L268.428 248.998" stroke="#F9F4F4" stroke-width="2" stroke-miterlimit="10"/>
<path d="M249.532 275.314L239.406 278.026L242.118 267.899L249.532 275.314Z" fill="#F9F4F4"/>
<path d="M271.055 253.793L273.767 243.667L263.641 246.379L271.055 253.793Z" fill="#F9F4F4"/>
<path d="M221.422 196.016H253.811" stroke="#F9F4F4" stroke-width="2" stroke-miterlimit="10"/>
<path d="M252.273 201.254L261.358 196.015L252.273 190.767V201.254Z" fill="#F9F4F4"/>
<path d="M188.012 198.439H184.836V209.989H188.012C192.797 209.989 194.271 207.834 194.271 204.018C194.271 200.203 192.797 198.439 188.012 198.439Z" fill="#F9F4F4"/>
<path d="M186.33 154.975C178.315 154.975 170.48 157.351 163.815 161.804C157.151 166.257 151.957 172.587 148.89 179.992C145.822 187.397 145.02 195.545 146.583 203.406C148.147 211.267 152.007 218.488 157.674 224.156C163.342 229.823 170.563 233.683 178.424 235.247C186.285 236.81 194.433 236.008 201.838 232.94C209.243 229.873 215.573 224.679 220.026 218.015C224.479 211.35 226.855 203.515 226.855 195.5C226.855 184.752 222.586 174.444 214.986 166.844C207.386 159.244 197.078 154.975 186.33 154.975ZM186.33 230.055C179.494 230.055 172.811 228.028 167.127 224.23C161.442 220.431 157.012 215.033 154.396 208.717C151.78 202.401 151.095 195.451 152.429 188.746C153.763 182.041 157.055 175.882 161.889 171.048C166.723 166.214 172.882 162.922 179.587 161.589C186.292 160.255 193.242 160.939 199.558 163.556C205.874 166.172 211.272 170.602 215.07 176.286C218.868 181.97 220.895 188.653 220.895 195.49C220.887 204.654 217.243 213.441 210.762 219.922C204.282 226.402 195.495 230.047 186.33 230.055Z" fill="#F9F4F4"/>
<path d="M193.364 187.58C193.364 184.218 191.889 182.568 187.672 182.568H184.836V192.674H187.672C191.827 192.674 193.364 190.931 193.364 187.58Z" fill="#F9F4F4"/>
<path d="M186.511 164L186.51 164C180.279 163.998 174.188 165.844 169.006 169.305C163.824 172.765 159.785 177.685 157.4 183.441C155.014 189.197 154.39 195.532 155.605 201.643C156.82 207.754 159.82 213.368 164.226 217.774C168.632 222.18 174.246 225.18 180.357 226.395C186.468 227.61 192.803 226.986 198.559 224.6C204.315 222.215 209.235 218.176 212.695 212.994C216.156 207.812 218.002 201.721 218 195.49V195.489C217.992 187.14 214.672 179.135 208.768 173.232C202.865 167.328 194.86 164.008 186.511 164ZM192.491 212.348L191.625 212.465V213.339V219.177H189.718V213.612V212.612H188.718H185.123H184.123V213.612V219.177H182.215V213.622V212.622H181.215H173.569V209.474H174.269H174.351L174.432 209.46C175.016 209.364 175.552 209.082 175.964 208.657C176.375 208.232 176.638 207.686 176.716 207.1L176.724 207.035V206.969V185.232V185.169L176.716 185.106C176.641 184.517 176.378 183.969 175.965 183.543C175.553 183.117 175.014 182.835 174.428 182.741L174.349 182.728H174.269H173.569V179.619H181.215H182.215V178.619V173.014H184.123V178.619V179.619H185.123H188.19H188.796H189.796V178.619V173.014H191.704V178.912V179.779L192.563 179.902C195.506 180.321 197.616 181.201 198.981 182.458C200.314 183.687 201.033 185.366 201.033 187.626C201.033 189.625 200.474 190.992 199.498 191.974C198.494 192.986 196.937 193.704 194.729 194.159L193.931 194.323V195.139V195.334V196.195L194.783 196.323C197.345 196.706 199.196 197.504 200.399 198.655C201.575 199.78 202.234 201.338 202.235 203.485C202.198 206.071 201.291 208.035 199.697 209.471C198.075 210.932 195.657 211.92 192.491 212.348Z" fill="#F9F4F4" stroke="url(#paint5_linear_1513_3177)" stroke-width="2"/>
<defs>
<linearGradient id="paint0_linear_1513_3177" x1="16.4999" y1="5.839e-05" x2="232" y2="230" gradientUnits="userSpaceOnUse">
<stop offset="0.0187499" stop-color="#8FBAAD"/>
<stop offset="0.982292" stop-color="#F87C00"/>
</linearGradient>
<linearGradient id="paint1_linear_1513_3177" x1="140.747" y1="283.924" x2="195.728" y2="344.69" gradientUnits="userSpaceOnUse">
<stop offset="0.0187499" stop-color="#8FBAAD"/>
<stop offset="0.982292" stop-color="#F87C00"/>
</linearGradient>
<linearGradient id="paint2_linear_1513_3177" x1="270.895" y1="152.787" x2="325.876" y2="213.553" gradientUnits="userSpaceOnUse">
<stop offset="0.0187499" stop-color="#8FBAAD"/>
<stop offset="0.982292" stop-color="#F87C00"/>
</linearGradient>
<linearGradient id="paint3_linear_1513_3177" x1="140.747" y1="24.8086" x2="195.728" y2="85.5746" gradientUnits="userSpaceOnUse">
<stop offset="0.0187499" stop-color="#8FBAAD"/>
<stop offset="0.982292" stop-color="#F87C00"/>
</linearGradient>
<linearGradient id="paint4_linear_1513_3177" x1="10.5984" y1="152.788" x2="65.5793" y2="213.554" gradientUnits="userSpaceOnUse">
<stop offset="0.0187499" stop-color="#8FBAAD"/>
<stop offset="0.982292" stop-color="#F87C00"/>
</linearGradient>
<linearGradient id="paint5_linear_1513_3177" x1="158.67" y1="165" x2="211.05" y2="199.106" gradientUnits="userSpaceOnUse">
<stop offset="0.0187499" stop-color="#8FBAAD"/>
<stop offset="0.982292" stop-color="#F87C00"/>
</linearGradient>
</defs>
</svg>
