<svg width="80" height="80" viewBox="0 0 80 80" fill="none" xmlns="http://www.w3.org/2000/svg">
<circle cx="40" cy="40" r="40" fill="#F9F4F4"/>
<path d="M60 47C60 52.523 55.523 57 50 57C48.21 57 46.528 56.53 45.074 55.705C43.5341 54.8322 42.2532 53.5667 41.3619 52.0375C40.4705 50.5083 40.0006 48.77 40 47C40 44.432 40.968 42.09 42.558 40.32C43.4949 39.274 44.6421 38.4375 45.9245 37.8654C47.2069 37.2933 48.5957 36.9984 50 37C55.523 37 60 41.477 60 47Z" stroke="#F87C00" stroke-width="2" stroke-linecap="round" stroke-linejoin="round"/>
<path d="M50 28V37C48.5957 36.9984 47.2069 37.2933 45.9245 37.8654C44.6421 38.4375 43.4949 39.2739 42.558 40.32C40.9078 42.1533 39.9964 44.5335 40 47C40.0006 48.77 40.4705 50.5082 41.3619 52.0375C42.2532 53.5667 43.5341 54.8322 45.074 55.705C42.412 56.51 38.878 57 35 57C26.716 57 20 54.761 20 52V28" stroke="#F87C00" stroke-width="2" stroke-linecap="round" stroke-linejoin="round"/>
<path d="M20 44C20 46.761 26.716 49 35 49C36.807 49 38.54 48.894 40.144 48.698M20 36C20 38.761 26.716 41 35 41C37.756 41 40.339 40.752 42.558 40.32M50 28C50 30.761 43.284 33 35 33C26.716 33 20 30.761 20 28C20 25.239 26.716 23 35 23C43.284 23 50 25.239 50 28ZM55 47C55 48.3261 54.4732 49.5979 53.5355 50.5355C52.5979 51.4732 51.3261 52 50 52C48.6739 52 47.4021 51.4732 46.4645 50.5355C45.5268 49.5979 45 48.3261 45 47H55ZM50 42C50.7956 42 51.5587 42.3161 52.1213 42.8787C52.6839 43.4413 53 44.2044 53 45V47H47V45C47 44.2044 47.3161 43.4413 47.8787 42.8787C48.4413 42.3161 49.2044 42 50 42Z" stroke="#F87C00" stroke-width="2" stroke-linecap="round" stroke-linejoin="round"/>
</svg>
