<svg width="80" height="87" viewBox="0 0 80 87" fill="none" xmlns="http://www.w3.org/2000/svg">
<circle cx="40" cy="40" r="40" fill="#F9F4F4"/>
<g clip-path="url(#clip0_1449_2597)">
<path d="M60.5443 32.2708H53.0234C52.911 31.6337 52.597 31.0495 52.1276 30.6042H52.0026C51.3792 30.0702 50.5717 29.801 49.7526 29.8542V25.6875C49.7526 24.8587 49.4234 24.0638 48.8373 23.4778C48.2513 22.8917 47.4564 22.5625 46.6276 22.5625C45.7988 22.5625 45.0039 22.8917 44.4179 23.4778C43.8318 24.0638 43.5026 24.8587 43.5026 25.6875V29.8542C42.7441 29.8047 41.9935 30.0333 41.3915 30.4973C40.7894 30.9614 40.3771 31.6289 40.2318 32.375H35.9401V30.625C36.3516 30.6648 36.7669 30.6167 37.1584 30.4838C37.5499 30.3509 37.9087 30.1363 38.2109 29.8542C38.5237 29.5834 38.7796 29.2533 38.9638 28.8829C39.148 28.5124 39.2568 28.1092 39.284 27.6964C39.3111 27.2836 39.256 26.8695 39.1219 26.4782C38.9877 26.0868 38.7773 25.726 38.5026 25.4167L35.1693 21.6667C34.8797 21.339 34.5238 21.0766 34.1251 20.897C33.7264 20.7175 33.294 20.6247 32.8568 20.625C32.4143 20.6304 31.9775 20.7254 31.5729 20.9045C31.1683 21.0835 30.8041 21.3428 30.5026 21.6667L27.1484 25.4167C26.8714 25.7273 26.6588 26.0898 26.523 26.4832C26.3871 26.8765 26.3306 27.293 26.3568 27.7083C26.4008 28.5079 26.7605 29.2572 27.3568 29.7917C27.9812 30.3221 28.7899 30.5842 29.6068 30.5208V32.1667H18.8776C18.6013 32.1667 18.3364 32.2764 18.141 32.4718C17.9457 32.6671 17.8359 32.9321 17.8359 33.2083V58.2083C17.8359 58.4846 17.9457 58.7496 18.141 58.9449C18.3364 59.1403 18.6013 59.25 18.8776 59.25H60.5443C60.8205 59.25 61.0855 59.1403 61.2808 58.9449C61.4762 58.7496 61.5859 58.4846 61.5859 58.2083V33.2083C61.56 32.9505 61.4389 32.7116 61.2463 32.5382C61.0537 32.3649 60.8034 32.2695 60.5443 32.2708ZM42.6068 32.0833C42.7924 31.9328 43.0241 31.8506 43.263 31.8506C43.502 31.8506 43.7337 31.9328 43.9193 32.0833C44.0693 32.2059 44.2523 32.2812 44.4451 32.2998C44.638 32.3183 44.832 32.2793 45.0026 32.1875C45.1779 32.1016 45.3256 31.9682 45.4287 31.8024C45.5318 31.6366 45.5863 31.4452 45.5859 31.25V25.625C45.5859 25.3487 45.6957 25.0838 45.891 24.8884C46.0864 24.6931 46.3513 24.5833 46.6276 24.5833C46.9039 24.5833 47.1688 24.6931 47.3642 24.8884C47.5595 25.0838 47.6693 25.3487 47.6693 25.625V31.2083C47.6693 31.4018 47.7231 31.5914 47.8248 31.756C47.9265 31.9205 48.0721 32.0535 48.2451 32.14C48.4181 32.2265 48.6118 32.2632 48.8045 32.2458C48.9972 32.2284 49.1812 32.1577 49.3359 32.0417C49.5231 31.8947 49.7542 31.8148 49.9922 31.8148C50.2302 31.8148 50.4613 31.8947 50.6484 32.0417C50.7511 32.1262 50.8354 32.2308 50.8963 32.349C50.9572 32.4672 50.9933 32.5965 51.0026 32.7292C51.0117 32.8693 50.9925 33.0098 50.9459 33.1422C50.8994 33.2747 50.8265 33.3964 50.7318 33.5L47.3984 37.25C47.3038 37.3619 47.1856 37.4517 47.0524 37.5129C46.9192 37.5741 46.7742 37.6052 46.6276 37.6042C46.4815 37.6025 46.3373 37.5701 46.2045 37.5091C46.0717 37.4481 45.9532 37.3598 45.8568 37.25L42.5443 33.5833C42.449 33.4843 42.3757 33.3664 42.329 33.2372C42.2824 33.1079 42.2634 32.9704 42.2734 32.8333C42.2765 32.6925 42.3075 32.5536 42.3648 32.4248C42.422 32.2961 42.5043 32.18 42.6068 32.0833ZM28.7734 28.2917C28.6637 28.1919 28.577 28.0693 28.5195 27.9326C28.4619 27.7959 28.4348 27.6483 28.4401 27.5C28.4286 27.3646 28.4449 27.2282 28.4878 27.0992C28.5308 26.9703 28.5996 26.8515 28.6901 26.75L32.0234 22.9792C32.2341 22.7696 32.518 22.6501 32.8151 22.6458C32.9595 22.6461 33.1023 22.6758 33.2349 22.7331C33.3674 22.7904 33.4868 22.8741 33.5859 22.9792L36.8776 26.7708C36.9681 26.8723 37.0369 26.9911 37.0799 27.1201C37.1229 27.249 37.1391 27.3854 37.1276 27.5208C37.1278 27.6562 37.098 27.7899 37.0404 27.9124C36.9827 28.0348 36.8987 28.143 36.7943 28.2292C36.6087 28.3797 36.377 28.4619 36.138 28.4619C35.8991 28.4619 35.6674 28.3797 35.4818 28.2292C35.3139 28.1323 35.1235 28.0812 34.9297 28.0812C34.7359 28.0812 34.5455 28.1323 34.3776 28.2292C34.2062 28.318 34.0628 28.4526 33.9635 28.6182C33.8641 28.7837 33.8128 28.9736 33.8151 29.1667V34.7708C33.8098 35.0454 33.6983 35.3073 33.5041 35.5015C33.3099 35.6957 33.048 35.8072 32.7734 35.8125C32.4972 35.8125 32.2322 35.7028 32.0369 35.5074C31.8415 35.3121 31.7318 35.0471 31.7318 34.7708V29.1875C31.7322 28.9923 31.6777 28.8009 31.5745 28.6351C31.4714 28.4693 31.3238 28.3359 31.1484 28.25C31.0073 28.176 30.8493 28.1401 30.6901 28.1458C30.4634 28.1374 30.2414 28.2114 30.0651 28.3542C29.8729 28.4873 29.6422 28.5534 29.4087 28.5421C29.1751 28.5308 28.9519 28.4427 28.7734 28.2917ZM19.9193 34.3542H25.0234C24.805 35.6284 24.1968 36.8035 23.2827 37.7176C22.3686 38.6317 21.1935 39.2399 19.9193 39.4583V34.3542ZM19.9193 57.2708V52.1667C21.1935 52.3851 22.3686 52.9933 23.2827 53.9074C24.1968 54.8215 24.805 55.9966 25.0234 57.2708H19.9193ZM59.5026 57.2708H54.3984C54.6169 55.9966 55.225 54.8215 56.1392 53.9074C57.0533 52.9933 58.2284 52.3851 59.5026 52.1667V57.2708ZM59.5026 50.0833C57.6795 50.3207 55.9861 51.1543 54.6861 52.4543C53.3861 53.7543 52.5525 55.4478 52.3151 57.2708H27.1068C26.8694 55.4478 26.0358 53.7543 24.7358 52.4543C23.4358 51.1543 21.7424 50.3207 19.9193 50.0833V41.5417C21.7424 41.3043 23.4358 40.4707 24.7358 39.1707C26.0358 37.8707 26.8694 36.1773 27.1068 34.3542H29.6901V34.7708C29.6901 35.5996 30.0193 36.3945 30.6054 36.9805C31.1914 37.5666 31.9863 37.8958 32.8151 37.8958C33.6439 37.8958 34.4388 37.5666 35.0248 36.9805C35.6109 36.3945 35.9401 35.5996 35.9401 34.7708V34.3542H40.6276C40.6898 34.5241 40.7738 34.6851 40.8776 34.8333V34.9375L44.2109 38.6875C44.4979 39.0143 44.85 39.2777 45.2446 39.4606C45.6392 39.6436 46.0677 39.7421 46.5026 39.75C46.945 39.7507 47.3823 39.6561 47.7849 39.4728C48.1876 39.2894 48.546 39.0216 48.8359 38.6875L52.1693 34.9375V34.8333C52.4977 36.56 53.3637 38.1387 54.6434 39.3435C55.923 40.5484 57.5509 41.3178 59.2943 41.5417L59.5026 50.0833ZM59.5026 39.4583C58.2284 39.2399 57.0533 38.6317 56.1392 37.7176C55.225 36.8035 54.6169 35.6284 54.3984 34.3542H59.5026V39.4583Z" fill="#F87C00"/>
<path d="M39.7057 46.8542C39.9452 46.8596 40.1731 46.9586 40.3405 47.1299C40.5079 47.3012 40.6016 47.5313 40.6016 47.7708C40.5931 47.9455 40.5348 48.1141 40.4336 48.2568C40.3324 48.3994 40.1925 48.5101 40.0304 48.5758C39.8683 48.6415 39.6908 48.6595 39.5188 48.6276C39.3469 48.5957 39.1876 48.5153 39.0599 48.3958C38.988 48.305 38.9252 48.2073 38.8724 48.1042C38.7578 47.8605 38.5532 47.6707 38.3017 47.5745C38.0502 47.4784 37.7712 47.4834 37.5233 47.5885C37.2753 47.6936 37.0777 47.8906 36.9719 48.1383C36.8661 48.3859 36.8603 48.6649 36.9557 48.9167C37.1013 49.278 37.3213 49.6045 37.6016 49.875C37.8987 50.1773 38.2626 50.4056 38.6641 50.5417V51.0208C38.6641 51.2971 38.7738 51.5621 38.9692 51.7574C39.1645 51.9528 39.4295 52.0625 39.7057 52.0625C39.982 52.0625 40.2469 51.9528 40.4423 51.7574C40.6376 51.5621 40.7474 51.2971 40.7474 51.0208V50.5417C41.3147 50.3331 41.8046 49.9557 42.151 49.4603C42.4974 48.9649 42.6837 48.3753 42.6849 47.7708C42.6849 46.9788 42.3717 46.2189 41.8136 45.6568C41.2555 45.0948 40.4978 44.7763 39.7057 44.7708C39.4681 44.7708 39.2403 44.6765 39.0723 44.5084C38.9043 44.3404 38.8099 44.1126 38.8099 43.875C38.8261 43.7042 38.8888 43.5411 38.9913 43.4035C39.0937 43.2658 39.232 43.159 39.391 43.0945C39.55 43.03 39.7237 43.0105 39.893 43.0379C40.0624 43.0653 40.221 43.1387 40.3516 43.25C40.4373 43.3302 40.5017 43.4304 40.5391 43.5417C40.6496 43.7958 40.8565 43.9957 41.1144 44.0973C41.3722 44.1989 41.6599 44.1938 41.9141 44.0833C42.1682 43.9728 42.3681 43.7659 42.4697 43.508C42.5712 43.2502 42.5662 42.9625 42.4557 42.7083C42.3046 42.3562 42.0851 42.0375 41.8099 41.7708C41.5128 41.4685 41.1489 41.2402 40.7474 41.1042V40.6042C40.7474 40.3279 40.6376 40.0629 40.4423 39.8676C40.2469 39.6722 39.982 39.5625 39.7057 39.5625C39.4311 39.5678 39.1693 39.6793 38.9751 39.8735C38.7809 40.0677 38.6694 40.3296 38.6641 40.6042V41.0833C38.0984 41.3006 37.6111 41.6831 37.2656 42.1809C36.92 42.6788 36.7322 43.269 36.7266 43.875C36.7266 44.6651 37.0404 45.4229 37.5991 45.9816C38.1578 46.5403 38.9156 46.8542 39.7057 46.8542ZM42.9557 53.5208H36.4557C36.1795 53.5208 35.9145 53.6306 35.7192 53.8259C35.5238 54.0213 35.4141 54.2862 35.4141 54.5625C35.4141 54.8388 35.5238 55.1037 35.7192 55.2991C35.9145 55.4944 36.1795 55.6042 36.4557 55.6042H42.9557C43.232 55.6042 43.4969 55.4944 43.6923 55.2991C43.8876 55.1037 43.9974 54.8388 43.9974 54.5625C43.9974 54.4257 43.9705 54.2903 43.9181 54.1639C43.8658 54.0375 43.789 53.9227 43.6923 53.8259C43.5956 53.7292 43.4807 53.6525 43.3544 53.6001C43.228 53.5478 43.0925 53.5208 42.9557 53.5208Z" fill="#F87C00"/>
</g>
<defs>
<clipPath id="clip0_1449_2597">
<rect x="15" y="15" width="50" height="50" rx="17" fill="white"/>
</clipPath>
</defs>
</svg>
