<svg width="80" height="80" viewBox="0 0 80 80" fill="none" xmlns="http://www.w3.org/2000/svg">
<circle cx="40" cy="40" r="40" fill="#F9F4F4"/>
<g clip-path="url(#clip0_1449_2617)">
<g clip-path="url(#clip1_1449_2617)">
<g clip-path="url(#clip2_1449_2617)">
<path d="M64.998 49.0537C64.9716 48.5927 64.8409 48.1437 64.6156 47.7405C64.3904 47.3374 64.0765 46.9907 63.6976 46.7266C63.3188 46.4625 62.8849 46.2879 62.4288 46.216C61.9726 46.1441 61.5061 46.1768 61.0644 46.3116L49.8026 49.7373C49.6997 49.2382 49.4784 48.7711 49.1574 48.3754C48.8364 47.9796 48.425 47.6667 47.9579 47.4629L40.619 44.2735C38.117 43.1887 35.3119 43.0241 32.7001 43.8086L29.244 44.8487L29.1982 44.5821C29.0896 43.9557 28.7368 43.3982 28.2173 43.0319C27.6977 42.6656 27.054 42.5207 26.4276 42.6289L20.5536 43.6465L15.6054 44.5049C15.5106 44.5213 15.42 44.5563 15.3387 44.6077C15.2574 44.6591 15.1871 44.7261 15.1317 44.8047C15.0198 44.9635 14.9755 45.1602 15.0087 45.3516C15.0251 45.4464 15.06 45.537 15.1115 45.6183C15.1629 45.6995 15.2298 45.7699 15.3085 45.8253C15.4672 45.9372 15.664 45.9814 15.8554 45.9483L20.081 45.2149L23.0331 62.2539L15.6054 63.542C15.4186 63.5667 15.2485 63.6623 15.1305 63.8091C15.0124 63.9559 14.9554 64.1425 14.9714 64.3302C14.9874 64.5179 15.075 64.6923 15.2162 64.817C15.3574 64.9417 15.5412 65.0073 15.7294 65C15.7716 64.9999 15.8137 64.9963 15.8554 64.9893L29.8798 62.5586C30.5059 62.4494 31.0632 62.0963 31.4294 61.5767C31.7955 61.0571 31.9406 60.4136 31.8329 59.7871L31.663 58.8106L31.871 58.7618C32.3206 58.6585 32.7874 58.6558 33.2382 58.7539L46.3124 61.6358C46.7561 61.7319 47.209 61.7794 47.663 61.7774C48.9823 61.7771 50.2685 61.3635 51.3407 60.5948L63.7245 51.708C64.1445 51.41 64.4818 51.01 64.7046 50.5456C64.9274 50.0813 65.0283 49.5679 64.998 49.0537ZM29.6288 61.1104L24.4765 62.0039L21.5243 44.9649L26.6776 44.0713C26.9208 44.03 27.1704 44.0867 27.3718 44.2292C27.5732 44.3716 27.7098 44.588 27.7519 44.8311L30.0956 58.337C30.0961 58.3412 30.0961 58.3454 30.0956 58.3496L30.3886 60.0323C30.4305 60.276 30.3741 60.5263 30.2317 60.7285C30.0892 60.9306 29.8724 61.0679 29.6288 61.1104ZM62.871 50.5215L50.4872 59.4082C49.9348 59.8041 49.3053 60.0794 48.6395 60.2162C47.9738 60.3529 47.2867 60.3482 46.623 60.2022L33.5526 57.3155C32.8901 57.1709 32.2037 57.1749 31.5429 57.3272L31.4159 57.3575L29.496 46.3018L33.122 45.21C35.4022 44.5255 37.851 44.6698 40.0351 45.6172L47.3749 48.8067C47.7177 48.9564 48.0021 49.2141 48.1849 49.5404C48.3677 49.8667 48.4389 50.2438 48.3876 50.6143C48.3794 50.6744 48.368 50.7341 48.3534 50.793C48.2461 51.2276 47.9724 51.6027 47.5911 51.8375C47.2099 52.0722 46.7517 52.1478 46.3153 52.0479L42.1464 51.1075C42.0525 51.0863 41.9554 51.0838 41.8606 51.1002C41.7657 51.1166 41.6751 51.1515 41.5937 51.2029C41.5124 51.2543 41.442 51.3212 41.3865 51.3999C41.331 51.4785 41.2916 51.5673 41.2704 51.6612C41.2493 51.755 41.2468 51.8522 41.2632 51.947C41.2795 52.0418 41.3144 52.1325 41.3659 52.2138C41.4173 52.2952 41.4842 52.3656 41.5628 52.4211C41.6415 52.4765 41.7303 52.516 41.8241 52.5371L45.9921 53.4766C46.7771 53.6553 47.6008 53.5288 48.2959 53.1225C48.9911 52.7163 49.5056 52.0608 49.7353 51.2891L61.4823 47.7149C61.633 47.6691 61.7897 47.6457 61.9472 47.6455C62.2828 47.6468 62.6094 47.7544 62.8801 47.9528C63.1507 48.1512 63.3516 48.4303 63.4538 48.75C63.556 49.0696 63.5542 49.4135 63.4488 49.7321C63.3434 50.0507 63.1398 50.3278 62.8671 50.5235L62.871 50.5215ZM39.5165 31.1963C39.6303 31.6163 39.8301 32.0081 40.1033 32.3469C40.3765 32.6856 40.7171 32.9639 41.1034 33.1641C41.3871 33.3113 41.6225 33.5367 41.7819 33.8136C41.9414 34.0906 42.018 34.4074 42.0028 34.7266C41.9818 35.162 42.052 35.597 42.2091 36.0037C42.3661 36.4103 42.6065 36.7796 42.9148 37.0878C43.2231 37.396 43.5925 37.6363 43.9991 37.7932C44.4058 37.9502 44.8409 38.0203 45.2763 37.9991C45.5945 37.9852 45.91 38.0624 46.1859 38.2215C46.4618 38.3806 46.6866 38.6151 46.8339 38.8975C47.0336 39.2848 47.3121 39.626 47.6513 39.8995C47.9906 40.173 48.3832 40.3726 48.804 40.4855C49.2249 40.5985 49.6647 40.6224 50.0953 40.5556C50.5258 40.4888 50.9378 40.3328 51.3046 40.0977C51.5732 39.926 51.8853 39.8348 52.204 39.8348C52.5228 39.8348 52.8349 39.926 53.1034 40.0977C53.4703 40.3332 53.8824 40.4894 54.3132 40.5564C54.744 40.6233 55.1841 40.5996 55.6051 40.4866C56.0262 40.3736 56.419 40.1739 56.7585 39.9002C57.0979 39.6266 57.3764 39.285 57.5761 38.8975C57.723 38.6147 57.9477 38.3798 58.2236 38.2205C58.4996 38.0611 58.8153 37.984 59.1337 37.9981C59.5686 38.0181 60.003 37.9472 60.4089 37.7899C60.8149 37.6325 61.1836 37.3923 61.4915 37.0844C61.7994 36.7765 62.0396 36.4078 62.197 36.0018C62.3543 35.5959 62.4252 35.1615 62.4052 34.7266C62.39 34.4074 62.4667 34.0906 62.6261 33.8136C62.7855 33.5367 63.021 33.3113 63.3046 33.1641C63.6915 32.9638 64.0324 32.6851 64.3055 32.3457C64.5786 32.0062 64.7779 31.6135 64.8907 31.1927C65.0034 30.7719 65.0272 30.3322 64.9604 29.9017C64.8936 29.4712 64.7378 29.0593 64.5028 28.6924C64.3312 28.4239 64.2399 28.1118 64.2399 27.793C64.2399 27.4743 64.3312 27.1622 64.5028 26.8936C64.7378 26.5268 64.8936 26.115 64.9604 25.6846C65.0271 25.2541 65.0034 24.8145 64.8906 24.3937C64.7778 23.973 64.5785 23.5804 64.3054 23.2411C64.0324 22.9017 63.6915 22.623 63.3046 22.4229C63.0217 22.2761 62.7868 22.0514 62.6274 21.7754C62.4681 21.4994 62.391 21.1836 62.4052 20.8653C62.4254 20.43 62.3545 19.9954 62.1971 19.5891C62.0397 19.1828 61.7993 18.8139 61.4912 18.5058C61.1832 18.1977 60.8142 17.9573 60.4079 17.7999C60.0016 17.6425 59.567 17.5717 59.1317 17.5918C58.8141 17.606 58.499 17.5293 58.2235 17.3707C57.9479 17.2121 57.7233 16.9781 57.5761 16.6963C57.376 16.3091 57.0972 15.968 56.7577 15.6947C56.4182 15.4215 56.0253 15.2221 55.6043 15.1094C55.1833 14.9967 54.7434 14.9732 54.3127 15.0403C53.8821 15.1073 53.4702 15.2636 53.1034 15.4991C52.8347 15.6703 52.5227 15.7612 52.204 15.7612C51.8854 15.7612 51.5733 15.6703 51.3046 15.4991C50.9379 15.2639 50.5262 15.1079 50.0957 15.041C49.6653 14.9741 49.2256 14.9978 48.8049 15.1104C48.3841 15.2231 47.9915 15.4224 47.6521 15.6955C47.3127 15.9685 47.034 16.3094 46.8339 16.6963C46.6871 16.9792 46.4624 17.2141 46.1864 17.3735C45.9104 17.5329 45.5946 17.61 45.2763 17.5957C44.841 17.5754 44.4063 17.6462 43.9999 17.8035C43.5936 17.9608 43.2246 18.2012 42.9164 18.5093C42.6083 18.8175 42.3679 19.1865 42.2106 19.5928C42.0533 19.9992 41.9825 20.4339 42.0028 20.8692C42.0171 21.1875 41.94 21.5033 41.7806 21.7793C41.6212 22.0553 41.3863 22.28 41.1034 22.4268C40.7163 22.6267 40.3752 22.9053 40.102 23.2446C39.8287 23.5839 39.6293 23.9766 39.5165 24.3974C39.4037 24.8182 39.38 25.258 39.447 25.6885C39.5139 26.119 39.67 26.5308 39.9052 26.8975C40.0769 27.1661 40.1681 27.4782 40.1681 27.7969C40.1681 28.1157 40.0769 28.4278 39.9052 28.6963C39.6708 29.0634 39.5152 29.4752 39.4483 29.9055C39.3814 30.3359 39.4046 30.7754 39.5165 31.1963ZM41.1386 26.1075C41.0133 25.9123 40.9302 25.6931 40.8946 25.4639C40.8589 25.2347 40.8715 25.0006 40.9316 24.7766C40.9916 24.5526 41.0977 24.3436 41.2432 24.1629C41.3886 23.9823 41.5702 23.834 41.7763 23.7276C42.3081 23.4514 42.7498 23.0288 43.0492 22.5096C43.3485 21.9905 43.4931 21.3965 43.4657 20.7979C43.4549 20.5663 43.4925 20.3349 43.5762 20.1187C43.6599 19.9024 43.7879 19.7061 43.9519 19.5422C44.1159 19.3782 44.3124 19.2504 44.5286 19.1668C44.7449 19.0832 44.9763 19.0457 45.2079 19.0567C45.8067 19.0842 46.4008 18.9396 46.92 18.64C47.4392 18.3404 47.8618 17.8984 48.1376 17.3662C48.2443 17.1604 48.3927 16.979 48.5733 16.8338C48.754 16.6885 48.9629 16.5825 49.1869 16.5224C49.4108 16.4624 49.6448 16.4498 49.8739 16.4853C50.103 16.5208 50.3222 16.6036 50.5175 16.7286C51.022 17.0509 51.6082 17.2222 52.2069 17.2222C52.8057 17.2222 53.3919 17.0509 53.8964 16.7286C54.0917 16.6036 54.3109 16.5208 54.54 16.4853C54.7691 16.4498 55.0031 16.4624 55.227 16.5224C55.4509 16.5825 55.6599 16.6885 55.8406 16.8338C56.0212 16.979 56.1696 17.1604 56.2763 17.3662C56.5522 17.8983 56.9748 18.3403 57.4939 18.6399C58.0131 18.9394 58.6072 19.0841 59.206 19.0567C59.4374 19.0465 59.6683 19.0847 59.8841 19.1688C60.0999 19.253 60.2958 19.3812 60.4592 19.5454C60.6226 19.7095 60.75 19.906 60.8332 20.1221C60.9164 20.3383 60.9535 20.5695 60.9423 20.8008C60.9149 21.3995 61.0595 21.9934 61.3588 22.5126C61.6582 23.0317 62.0999 23.4543 62.6317 23.7305C62.8378 23.8369 63.0194 23.9852 63.1648 24.1659C63.3103 24.3465 63.4164 24.5555 63.4765 24.7795C63.5365 25.0036 63.5491 25.2376 63.5134 25.4668C63.4778 25.696 63.3947 25.9152 63.2694 26.1104C62.9471 26.6151 62.7758 27.2015 62.7758 27.8003C62.7758 28.3992 62.9471 28.9856 63.2694 29.4903C63.3947 29.6854 63.4778 29.9045 63.5134 30.1336C63.549 30.3627 63.5364 30.5967 63.4764 30.8207C63.4164 31.0446 63.3102 31.2536 63.1648 31.4341C63.0193 31.6147 62.8378 31.7628 62.6317 31.8692C62.0999 32.1454 61.6582 32.568 61.3588 33.0871C61.0595 33.6062 60.9149 34.2002 60.9423 34.7989C60.953 35.0305 60.9153 35.2618 60.8315 35.478C60.7477 35.6943 60.6198 35.8906 60.4558 36.0546C60.2919 36.2185 60.0955 36.3465 59.8793 36.4303C59.6631 36.514 59.4317 36.5518 59.2001 36.5411C58.6014 36.5133 58.0073 36.6577 57.4881 36.9571C56.9689 37.2565 56.5463 37.6984 56.2704 38.2305C56.164 38.4366 56.0157 38.6181 55.8351 38.7636C55.6544 38.9091 55.4454 39.0152 55.2214 39.0752C54.9974 39.1352 54.7633 39.1478 54.5341 39.1122C54.3049 39.0765 54.0857 38.9934 53.8905 38.8682C53.3859 38.5462 52.7997 38.3751 52.2011 38.3751C51.6024 38.3751 51.0163 38.5462 50.5116 38.8682C50.3164 38.9934 50.0972 39.0765 49.8681 39.1122C49.6389 39.1478 49.4048 39.1352 49.1808 39.0752C48.9568 39.0152 48.7477 38.9091 48.5671 38.7636C48.3865 38.6181 48.2382 38.4366 48.1317 38.2305C47.8558 37.6985 47.4332 37.2567 46.914 36.9573C46.3948 36.6579 45.8007 36.5135 45.2021 36.5411C44.9704 36.5518 44.7391 36.514 44.5229 36.4303C44.3067 36.3465 44.1103 36.2185 43.9463 36.0546C43.7824 35.8906 43.6544 35.6943 43.5707 35.478C43.4869 35.2618 43.4492 35.0305 43.4599 34.7989C43.4872 34.2002 43.3427 33.6062 43.0433 33.0871C42.7439 32.568 42.3023 32.1454 41.7704 31.8692C41.5644 31.7628 41.3828 31.6147 41.2374 31.4341C41.0919 31.2536 40.9858 31.0446 40.9258 30.8207C40.8657 30.5967 40.8531 30.3627 40.8888 30.1336C40.9244 29.9045 41.0075 29.6854 41.1327 29.4903C41.4565 28.9858 41.6292 28.3992 41.6302 27.7997C41.6312 27.2003 41.4606 26.613 41.1386 26.1075ZM53.6903 29.2852C53.2278 29.7486 52.913 30.3386 52.7858 30.9808C52.6585 31.623 52.7244 32.2886 52.9752 32.8933C53.226 33.4981 53.6505 34.0149 54.1949 34.3785C54.7394 34.7421 55.3794 34.9362 56.0341 34.9362C56.6888 34.9362 57.3288 34.7421 57.8732 34.3785C58.4177 34.0149 58.8421 33.4981 59.093 32.8933C59.3438 32.2886 59.4097 31.623 59.2824 30.9808C59.1551 30.3386 58.8404 29.7486 58.3778 29.2852C57.7555 28.665 56.9127 28.3168 56.0341 28.3168C55.1555 28.3168 54.3127 28.665 53.6903 29.2852ZM57.8778 31.6289C57.8778 32.0559 57.7297 32.4697 57.4589 32.7997C57.188 33.1298 56.811 33.3557 56.3923 33.439C55.9735 33.5224 55.5388 33.4579 55.1622 33.2566C54.7856 33.0554 54.4905 32.7298 54.327 32.3353C54.1636 31.9409 54.1419 31.502 54.2658 31.0933C54.3897 30.6847 54.6514 30.3317 55.0064 30.0944C55.3613 29.8571 55.7876 29.7502 56.2125 29.7919C56.6375 29.8337 57.0348 30.0215 57.3368 30.3233C57.5087 30.494 57.645 30.6972 57.7379 30.921C57.8307 31.1447 57.8783 31.3847 57.8778 31.627V31.6289ZM48.3749 27.2803C49.1405 27.2791 49.882 27.0126 50.473 26.5261C51.0641 26.0395 51.4683 25.3632 51.6166 24.6121C51.765 23.8611 51.6484 23.0818 51.2867 22.4071C50.925 21.7323 50.3405 21.2039 49.6329 20.9117C48.9253 20.6195 48.1383 20.5817 47.4059 20.8046C46.6735 21.0276 46.0411 21.4976 45.6164 22.1345C45.1916 22.7714 45.0008 23.5359 45.0764 24.2977C45.1521 25.0595 45.4895 25.7716 46.0312 26.3125C46.3389 26.6201 46.7044 26.8637 47.1066 27.0295C47.5088 27.1952 47.9399 27.2798 48.3749 27.2784V27.2803ZM47.0692 22.6641C47.3274 22.406 47.6562 22.2302 48.0143 22.159C48.3723 22.0878 48.7434 22.1244 49.0807 22.2641C49.4179 22.4038 49.7061 22.6404 49.9089 22.9439C50.1117 23.2474 50.22 23.6042 50.22 23.9693C50.22 24.3343 50.1117 24.6912 49.9089 24.9947C49.7061 25.2982 49.4179 25.5348 49.0807 25.6745C48.7434 25.8142 48.3723 25.8507 48.0143 25.7795C47.6562 25.7083 47.3274 25.5326 47.0692 25.2745C46.8965 25.1038 46.7594 24.9005 46.6659 24.6765C46.5723 24.4525 46.5241 24.2121 46.5241 23.9693C46.5241 23.7265 46.5723 23.4861 46.6659 23.262C46.7594 23.038 46.8965 22.8348 47.0692 22.6641ZM46.7362 33.2618C46.8041 33.3299 46.8848 33.384 46.9736 33.4209C47.0624 33.4578 47.1576 33.4768 47.2538 33.4768C47.35 33.4768 47.4452 33.4578 47.534 33.4209C47.6229 33.384 47.7035 33.3299 47.7714 33.2618L57.6737 23.3643C57.742 23.2963 57.7962 23.2154 57.8333 23.1265C57.8704 23.0375 57.8895 22.9421 57.8897 22.8457C57.8899 22.7493 57.8711 22.6538 57.8344 22.5646C57.7976 22.4755 57.7437 22.3945 57.6757 22.3262C57.6077 22.2579 57.5268 22.2037 57.4379 22.1666C57.3489 22.1296 57.2534 22.1104 57.1571 22.1102C57.0607 22.1101 56.9652 22.1289 56.876 22.1656C56.7869 22.2023 56.7059 22.2562 56.6376 22.3243L46.7362 32.2305C46.6 32.3675 46.5236 32.5529 46.5236 32.7461C46.5236 32.9393 46.6 33.1247 46.7362 33.2618Z" fill="#F87C00"/>
</g>
</g>
</g>
<defs>
<clipPath id="clip0_1449_2617">
<rect x="15" y="15" width="50" height="50" rx="17" fill="white"/>
</clipPath>
<clipPath id="clip1_1449_2617">
<rect width="50" height="50" fill="white" transform="translate(15 15)"/>
</clipPath>
<clipPath id="clip2_1449_2617">
<rect width="50" height="50" fill="white" transform="translate(15 15)"/>
</clipPath>
</defs>
</svg>
