<svg width="80" height="80" viewBox="0 0 80 80" fill="none" xmlns="http://www.w3.org/2000/svg">
<circle cx="40" cy="40" r="40" fill="#F9F4F4"/>
<g clip-path="url(#clip0_1449_2607)">
<g clip-path="url(#clip1_1449_2607)">
<path d="M34.5312 29.0625H32.9688C32.5543 29.0625 32.1569 28.8979 31.8639 28.6049C31.5709 28.3118 31.4062 27.9144 31.4062 27.5C31.4062 27.2928 31.3239 27.0941 31.1774 26.9476C31.0309 26.8011 30.8322 26.7188 30.625 26.7188C30.4178 26.7188 30.2191 26.8011 30.0726 26.9476C29.9261 27.0941 29.8438 27.2928 29.8438 27.5C29.8438 28.3288 30.173 29.1237 30.759 29.7097C31.3451 30.2958 32.1399 30.625 32.9688 30.625V31.4063C32.9688 31.6135 33.0511 31.8122 33.1976 31.9587C33.3441 32.1052 33.5428 32.1875 33.75 32.1875C33.9572 32.1875 34.1559 32.1052 34.3024 31.9587C34.4489 31.8122 34.5312 31.6135 34.5312 31.4063V30.625C35.3601 30.625 36.1549 30.2958 36.741 29.7097C37.327 29.1237 37.6562 28.3288 37.6562 27.5C37.6562 26.6712 37.327 25.8763 36.741 25.2903C36.1549 24.7042 35.3601 24.375 34.5312 24.375H32.9688C32.5543 24.375 32.1569 24.2104 31.8639 23.9174C31.5709 23.6243 31.4062 23.2269 31.4062 22.8125C31.4062 22.3981 31.5709 22.0007 31.8639 21.7076C32.1569 21.4146 32.5543 21.25 32.9688 21.25H34.5312C34.9457 21.25 35.3431 21.4146 35.6361 21.7076C35.9291 22.0007 36.0938 22.3981 36.0938 22.8125C36.0938 23.0197 36.1761 23.2184 36.3226 23.3649C36.4691 23.5114 36.6678 23.5938 36.875 23.5938C37.0822 23.5938 37.2809 23.5114 37.4274 23.3649C37.5739 23.2184 37.6562 23.0197 37.6562 22.8125C37.6562 21.9837 37.327 21.1888 36.741 20.6028C36.1549 20.0167 35.3601 19.6875 34.5312 19.6875V18.9063C34.5312 18.6991 34.4489 18.5003 34.3024 18.3538C34.1559 18.2073 33.9572 18.125 33.75 18.125C33.5428 18.125 33.3441 18.2073 33.1976 18.3538C33.0511 18.5003 32.9688 18.6991 32.9688 18.9063V19.6875C32.1399 19.6875 31.3451 20.0167 30.759 20.6028C30.173 21.1888 29.8438 21.9837 29.8438 22.8125C29.8438 23.6413 30.173 24.4362 30.759 25.0222C31.3451 25.6083 32.1399 25.9375 32.9688 25.9375H34.5312C34.9457 25.9375 35.3431 26.1021 35.6361 26.3951C35.9291 26.6882 36.0938 27.0856 36.0938 27.5C36.0938 27.9144 35.9291 28.3118 35.6361 28.6049C35.3431 28.8979 34.9457 29.0625 34.5312 29.0625ZM33.75 35.3125C35.7587 35.3125 37.7223 34.7168 39.3925 33.6009C41.0627 32.4849 42.3644 30.8987 43.1332 29.0429C43.9019 27.1871 44.103 25.145 43.7111 23.1749C43.3192 21.2047 42.3519 19.3951 40.9316 17.9747C39.5112 16.5543 37.7015 15.587 35.7314 15.1952C33.7613 14.8033 31.7192 15.0044 29.8634 15.7731C28.0076 16.5418 26.4214 17.8436 25.3054 19.5137C24.1894 21.1839 23.5938 23.1475 23.5938 25.1563C23.5971 27.8488 24.6682 30.4302 26.5721 32.3342C28.476 34.2381 31.0574 35.3092 33.75 35.3125ZM33.75 16.5625C35.4497 16.5625 37.1112 17.0665 38.5244 18.0108C39.9377 18.9551 41.0391 20.2973 41.6896 21.8676C42.34 23.4379 42.5102 25.1658 42.1786 26.8328C41.847 28.4998 41.0286 30.0311 39.8267 31.233C38.6248 32.4348 37.0936 33.2533 35.4266 33.5849C33.7595 33.9165 32.0316 33.7463 30.4613 33.0958C28.891 32.4454 27.5489 31.3439 26.6046 29.9307C25.6603 28.5175 25.1562 26.8559 25.1562 25.1563C25.1591 22.8779 26.0655 20.6938 27.6765 19.0828C29.2875 17.4717 31.4717 16.5654 33.75 16.5625ZM62.6562 41.5625C62.4491 41.5625 62.2503 41.6448 62.1038 41.7913C61.9573 41.9378 61.875 42.1366 61.875 42.3438V45.2578L46.7734 31.6078C46.6351 31.483 46.4568 31.4118 46.2705 31.4069C46.0843 31.402 45.9025 31.4639 45.7578 31.5813L33.7641 41.325L17.9156 27.6891C17.758 27.5584 17.5554 27.4948 17.3514 27.5121C17.1474 27.5293 16.9583 27.6259 16.8248 27.7811C16.6912 27.9363 16.624 28.1377 16.6375 28.342C16.651 28.5463 16.7441 28.7371 16.8969 28.8734L33.2406 42.9359C33.3796 43.0557 33.5562 43.1227 33.7396 43.1253C33.923 43.1278 34.1015 43.0658 34.2437 42.95L46.2234 33.2156L60.6437 46.25H57.9688C57.7616 46.25 57.5628 46.3323 57.4163 46.4788C57.2698 46.6253 57.1875 46.8241 57.1875 47.0313C57.1875 47.2385 57.2698 47.4372 57.4163 47.5837C57.5628 47.7302 57.7616 47.8125 57.9688 47.8125H62.6562C62.8171 47.8108 62.9736 47.7594 63.1042 47.6655C63.2348 47.5715 63.3332 47.4395 63.3859 47.2875C63.3951 47.2536 63.4019 47.2192 63.4062 47.1844C63.4222 47.1336 63.4327 47.0812 63.4375 47.0281V42.3406C63.4367 42.134 63.354 41.9361 63.2076 41.7902C63.0612 41.6444 62.8629 41.5625 62.6562 41.5625ZM23.5938 40H18.9062C18.2846 40 17.6885 40.2469 17.249 40.6865C16.8094 41.126 16.5625 41.7222 16.5625 42.3438V64.2188C16.5625 64.426 16.6448 64.6247 16.7913 64.7712C16.9378 64.9177 17.1365 65 17.3438 65H25.1562C25.3635 65 25.5622 64.9177 25.7087 64.7712C25.8552 64.6247 25.9375 64.426 25.9375 64.2188V42.3438C25.9375 41.7222 25.6906 41.126 25.251 40.6865C24.8115 40.2469 24.2154 40 23.5938 40ZM24.375 63.4375H18.125V42.3438C18.125 42.1366 18.2073 41.9378 18.3538 41.7913C18.5003 41.6448 18.699 41.5625 18.9062 41.5625H23.5938C23.801 41.5625 23.9997 41.6448 24.1462 41.7913C24.2927 41.9378 24.375 42.1366 24.375 42.3438V63.4375ZM48.5938 40H43.9062C43.2846 40 42.6885 40.2469 42.249 40.6865C41.8094 41.126 41.5625 41.7222 41.5625 42.3438V64.2188C41.5625 64.426 41.6448 64.6247 41.7913 64.7712C41.9378 64.9177 42.1365 65 42.3438 65H50.1562C50.3634 65 50.5622 64.9177 50.7087 64.7712C50.8552 64.6247 50.9375 64.426 50.9375 64.2188V42.3438C50.9375 41.7222 50.6906 41.126 50.251 40.6865C49.8115 40.2469 49.2154 40 48.5938 40ZM49.375 63.4375H43.125V42.3438C43.125 42.1366 43.2073 41.9378 43.3538 41.7913C43.5003 41.6448 43.699 41.5625 43.9062 41.5625H48.5938C48.8009 41.5625 48.9997 41.6448 49.1462 41.7913C49.2927 41.9378 49.375 42.1366 49.375 42.3438V63.4375ZM61.0938 50.9375H56.4062C55.7846 50.9375 55.1885 51.1844 54.749 51.624C54.3094 52.0635 54.0625 52.6597 54.0625 53.2813V64.2188C54.0625 64.426 54.1448 64.6247 54.2913 64.7712C54.4378 64.9177 54.6366 65 54.8438 65H62.6562C62.8634 65 63.0622 64.9177 63.2087 64.7712C63.3552 64.6247 63.4375 64.426 63.4375 64.2188V53.2813C63.4375 52.6597 63.1906 52.0635 62.751 51.624C62.3115 51.1844 61.7154 50.9375 61.0938 50.9375ZM61.875 63.4375H55.625V53.2813C55.625 53.0741 55.7073 52.8753 55.8538 52.7288C56.0003 52.5823 56.1991 52.5 56.4062 52.5H61.0938C61.3009 52.5 61.4997 52.5823 61.6462 52.7288C61.7927 52.8753 61.875 53.0741 61.875 53.2813V63.4375ZM36.0938 46.25H31.4062C30.7846 46.25 30.1885 46.4969 29.749 46.9365C29.3094 47.376 29.0625 47.9722 29.0625 48.5938V64.2188C29.0625 64.426 29.1448 64.6247 29.2913 64.7712C29.4378 64.9177 29.6365 65 29.8438 65H37.6562C37.8635 65 38.0622 64.9177 38.2087 64.7712C38.3552 64.6247 38.4375 64.426 38.4375 64.2188V48.5938C38.4375 47.9722 38.1906 47.376 37.751 46.9365C37.3115 46.4969 36.7154 46.25 36.0938 46.25ZM36.875 63.4375H30.625V48.5938C30.625 48.3866 30.7073 48.1878 30.8538 48.0413C31.0003 47.8948 31.199 47.8125 31.4062 47.8125H36.0938C36.301 47.8125 36.4997 47.8948 36.6462 48.0413C36.7927 48.1878 36.875 48.3866 36.875 48.5938V63.4375Z" fill="#F87C00"/>
</g>
</g>
<defs>
<clipPath id="clip0_1449_2607">
<rect x="15" y="15" width="50" height="50" rx="17" fill="white"/>
</clipPath>
<clipPath id="clip1_1449_2607">
<rect width="50" height="50" fill="white" transform="translate(15 15)"/>
</clipPath>
</defs>
</svg>
