<svg width="80" height="80" viewBox="0 0 80 80" fill="none" xmlns="http://www.w3.org/2000/svg">
<circle cx="40" cy="40" r="40" fill="#F9F4F4"/>
<g clip-path="url(#clip0_1449_2627)">
<path d="M63.4375 27.5H55.4297L56.25 26.4063C56.3371 26.2902 56.3901 26.1522 56.4031 26.0077C56.4161 25.8632 56.3887 25.7179 56.3238 25.5881C56.2589 25.4583 56.1591 25.3492 56.0357 25.2729C55.9123 25.1967 55.7701 25.1562 55.625 25.1562H54.0625V18.9062H52.5V25.9375C52.5 26.1447 52.5823 26.3434 52.7288 26.4899C52.8753 26.6364 53.0741 26.7188 53.2812 26.7188H54.0625L50.9375 30.8852L47.8125 26.7188H48.5938C48.8009 26.7188 48.9997 26.6364 49.1462 26.4899C49.2927 26.3434 49.375 26.1447 49.375 25.9375V18.9062H47.8125V25.1562H46.25C46.1049 25.1562 45.9627 25.1967 45.8393 25.2729C45.7159 25.3492 45.6161 25.4583 45.5512 25.5881C45.4863 25.7179 45.4589 25.8632 45.4719 26.0077C45.4849 26.1522 45.5379 26.2902 45.625 26.4063L46.4453 27.5H16.5625C16.3553 27.5 16.1566 27.5823 16.0101 27.7288C15.8636 27.8753 15.7812 28.074 15.7812 28.2812V50.1562C15.7812 50.3635 15.8636 50.5622 16.0101 50.7087C16.1566 50.8552 16.3553 50.9375 16.5625 50.9375H24.375V54.0625H22.8125C22.6674 54.0625 22.5252 54.1029 22.4018 54.1792C22.2784 54.2555 22.1786 54.3646 22.1137 54.4944C22.0488 54.6241 22.0214 54.7694 22.0344 54.9139C22.0474 55.0584 22.1004 55.1964 22.1875 55.3125L26.875 61.5625C26.9478 61.6595 27.0421 61.7383 27.1506 61.7925C27.2591 61.8468 27.3787 61.875 27.5 61.875C27.6213 61.875 27.7409 61.8468 27.8494 61.7925C27.9579 61.7383 28.0522 61.6595 28.125 61.5625L32.8125 55.3125C32.8996 55.1964 32.9526 55.0584 32.9656 54.9139C32.9786 54.7694 32.9512 54.6241 32.8863 54.4944C32.8214 54.3646 32.7216 54.2555 32.5982 54.1792C32.4748 54.1029 32.3326 54.0625 32.1875 54.0625H30.625V50.9375H40C40.1776 50.9395 40.3506 50.8809 40.4904 50.7714C40.6302 50.662 40.7286 50.5081 40.7693 50.3352C40.8099 50.1623 40.7905 49.9808 40.7141 49.8204C40.6378 49.6601 40.5091 49.5305 40.3492 49.4531L36.5438 47.5547L39.8195 43.625C39.9282 43.4952 39.9918 43.3335 40.0007 43.1645C40.0095 42.9954 39.9632 42.828 39.8688 42.6875L38.5578 40.7211L40.1203 37.6L43.0172 41.6555L40.8469 46.7195C40.7795 46.8766 40.7654 47.0514 40.8069 47.2172C40.8484 47.3831 40.9431 47.5307 41.0766 47.6375L44.9828 50.7625C45.1203 50.8742 45.2916 50.9359 45.4688 50.9375H63.4375C63.6447 50.9375 63.8434 50.8552 63.9899 50.7087C64.1364 50.5622 64.2188 50.3635 64.2188 50.1562V28.2812C64.2188 28.074 64.1364 27.8753 63.9899 27.7288C63.8434 27.5823 63.6447 27.5 63.4375 27.5ZM62.6562 32.1094C61.9062 31.9548 61.2179 31.5838 60.6765 31.0423C60.135 30.5008 59.764 29.8125 59.6094 29.0625H62.6562V32.1094ZM20.3906 29.0625C20.236 29.8125 19.865 30.5008 19.3235 31.0423C18.7821 31.5838 18.0938 31.9548 17.3438 32.1094V29.0625H20.3906ZM17.3438 46.3281C18.0938 46.4827 18.7821 46.8537 19.3235 47.3952C19.865 47.9367 20.236 48.625 20.3906 49.375H17.3438V46.3281ZM40.6352 35.6398C40.5578 35.5293 40.4528 35.4409 40.3307 35.3835C40.2086 35.3261 40.0736 35.3016 39.9391 35.3125C39.8046 35.323 39.6752 35.368 39.5634 35.4433C39.4515 35.5186 39.361 35.6216 39.3008 35.7422L36.957 40.4297C36.8958 40.5527 36.8681 40.6898 36.8767 40.8269C36.8854 40.9641 36.93 41.0966 37.0062 41.2109L38.2453 43.0695L36.9328 44.6437C35.7542 43.9766 34.8245 42.9441 34.2841 41.7022C33.7437 40.4603 33.6218 39.0764 33.937 37.7591C34.2521 36.4419 34.9871 35.2629 36.031 34.4001C37.075 33.5372 38.3712 33.0373 39.7242 32.9758C41.0772 32.9142 42.4135 33.2944 43.5315 34.059C44.6494 34.8235 45.4884 35.9309 45.9218 37.2141C46.3552 38.4972 46.3595 39.8865 45.9341 41.1724C45.5086 42.4582 44.6765 43.5708 43.5633 44.3422L44.6242 41.8664C44.677 41.743 44.6971 41.6081 44.6826 41.4747C44.6681 41.3413 44.6195 41.2139 44.5414 41.1047L40.6352 35.6398ZM42.5148 46.7922L42.6062 46.5789C44.2787 45.9886 45.7006 44.8472 46.6387 43.342C47.5767 41.8369 47.9751 40.0575 47.7683 38.2961C47.5615 36.5347 46.762 34.8959 45.5009 33.6489C44.2398 32.4019 42.5922 31.6208 40.8285 31.4338C39.0649 31.2468 37.2901 31.6651 35.7956 32.62C34.3011 33.5749 33.1757 35.0096 32.6042 36.6885C32.0327 38.3674 32.0491 40.1908 32.6507 41.8591C33.2523 43.5275 34.4034 44.9417 35.9148 45.8695L34.7117 47.3125C34.6363 47.4031 34.5823 47.5095 34.5538 47.6239C34.5254 47.7383 34.5231 47.8576 34.5473 47.973C34.5715 48.0883 34.6215 48.1967 34.6936 48.29C34.7656 48.3833 34.8578 48.4591 34.9633 48.5117L36.6906 49.375H30.625V47.8125H29.0625V54.8438C29.0625 55.0509 29.1448 55.2497 29.2913 55.3962C29.4378 55.5427 29.6365 55.625 29.8438 55.625H30.625L27.5 59.7914L24.375 55.625H25.1562C25.3635 55.625 25.5622 55.5427 25.7087 55.3962C25.8552 55.2497 25.9375 55.0509 25.9375 54.8438V47.8125H24.375V49.375H21.9688C21.7992 48.2086 21.2573 47.1283 20.4239 46.2949C19.5905 45.4614 18.5101 44.9196 17.3438 44.75V33.6875C18.5101 33.5179 19.5905 32.9761 20.4239 32.1426C21.2573 31.3092 21.7992 30.2289 21.9688 29.0625H47.6172L50.3125 32.6562C50.3853 32.7533 50.4796 32.832 50.5881 32.8863C50.6966 32.9405 50.8162 32.9688 50.9375 32.9688C51.0588 32.9688 51.1784 32.9405 51.2869 32.8863C51.3954 32.832 51.4897 32.7533 51.5625 32.6562L54.2578 29.0625H58.0312C58.2008 30.2289 58.7427 31.3092 59.5761 32.1426C60.4095 32.9761 61.4899 33.5179 62.6562 33.6875V44.75C61.4899 44.9196 60.4095 45.4614 59.5761 46.2949C58.7427 47.1283 58.2008 48.2086 58.0312 49.375H45.743L42.5148 46.7922ZM59.6094 49.375C59.764 48.625 60.135 47.9367 60.6765 47.3952C61.2179 46.8537 61.9062 46.4827 62.6562 46.3281V49.375H59.6094Z" fill="#F87C00"/>
</g>
<defs>
<clipPath id="clip0_1449_2627">
<rect x="15" y="15" width="50" height="50" rx="17" fill="white"/>
</clipPath>
</defs>
</svg>
