<svg width="80" height="80" viewBox="0 0 80 80" fill="none" xmlns="http://www.w3.org/2000/svg">
<circle cx="40" cy="40" r="40" fill="#F9F4F4"/>
<g clip-path="url(#clip0_1442_2541)">
<path d="M40.0026 60.5212C39.6207 60.5212 39.2651 60.4948 38.9359 60.442C38.6054 60.3906 38.3012 60.3128 38.0234 60.2087C33.7179 58.6114 30.1936 55.7642 27.4505 51.667C24.7075 47.5698 23.3359 43.0559 23.3359 38.1253V28.2816C23.3359 27.4135 23.588 26.6323 24.0922 25.9378C24.595 25.2434 25.2457 24.7399 26.0443 24.4274L38.5443 19.7399C39.0304 19.5663 39.5165 19.4795 40.0026 19.4795C40.4887 19.4795 40.9748 19.5663 41.4609 19.7399L53.9609 24.4274C54.7595 24.7399 55.4109 25.2434 55.9151 25.9378C56.4179 26.6323 56.6693 27.4135 56.6693 28.2816V38.1253C56.6693 43.0559 55.2977 47.5698 52.5547 51.667C49.8116 55.7642 46.2873 58.6114 41.9818 60.2087C41.704 60.3128 41.3998 60.3906 41.0693 60.442C40.7401 60.4948 40.3845 60.5212 40.0026 60.5212ZM40.0026 56.4587C43.3707 55.417 46.1832 53.36 48.4401 50.2878C50.697 47.2142 52.0165 43.785 52.3984 40.0003H40.0026V23.5941L27.5026 28.2816V39.0628C27.5026 39.3059 27.5373 39.6184 27.6068 40.0003H40.0026V56.4587Z" fill="#F87C00"/>
</g>
<defs>
<clipPath id="clip0_1442_2541">
<rect x="15" y="15" width="50" height="50" rx="17" fill="white"/>
</clipPath>
</defs>
</svg>
